<?xml version="1.0" encoding="UTF-8" standalone="no"?>
<svg
   xmlns:dc="http://purl.org/dc/elements/1.1/"
   xmlns:cc="http://creativecommons.org/ns#"
   xmlns:rdf="http://www.w3.org/1999/02/22-rdf-syntax-ns#"
   xmlns:svg="http://www.w3.org/2000/svg"
   xmlns="http://www.w3.org/2000/svg"
   xmlns:sodipodi="http://sodipodi.sourceforge.net/DTD/sodipodi-0.dtd"
   xmlns:inkscape="http://www.inkscape.org/namespaces/inkscape"
   version="1.0"
   width="685.40454pt"
   height="1235.2422pt"
   viewBox="0 0 685.40454 1235.2422"
   preserveAspectRatio="xMidYMid meet"
   id="svg4607"
   sodipodi:docname="BasicLantern.svg"
   inkscape:version="0.92.1 r15371">
  <defs
     id="defs4611" />
  <sodipodi:namedview
     pagecolor="#ffffff"
     bordercolor="#666666"
     borderopacity="1"
     objecttolerance="10"
     gridtolerance="10"
     guidetolerance="10"
     inkscape:pageopacity="0"
     inkscape:pageshadow="2"
     inkscape:window-width="1366"
     inkscape:window-height="705"
     id="namedview4609"
     showgrid="false"
     showguides="false"
     inkscape:guide-bbox="true"
     fit-margin-top="0"
     fit-margin-left="0"
     fit-margin-right="0"
     fit-margin-bottom="0"
     inkscape:zoom="0.28040756"
     inkscape:cx="503.06479"
     inkscape:cy="823.73392"
     inkscape:window-x="-8"
     inkscape:window-y="-8"
     inkscape:window-maximized="1"
     inkscape:current-layer="g4605" />
  <metadata
     id="metadata4485">
Created by potrace 1.12, written by Peter Selinger 2001-2015
<rdf:RDF>
  <cc:Work
     rdf:about="">
    <dc:format>image/svg+xml</dc:format>
    <dc:type
       rdf:resource="http://purl.org/dc/dcmitype/StillImage" />
    <dc:title></dc:title>
  </cc:Work>
</rdf:RDF>
</metadata>
  <g
     transform="matrix(0.1,0,0,-0.1,-12.626636,1257.4418)"
     id="g4605"
     style="fill:#000000;stroke:none">
    <path
       style="stroke-width:0.13333334"
       d="m 502.64062,30.078125 c -1.12282,0.0086 -2.26879,0.134641 -3.43554,0.400391 -6.12271,1.007481 -12.14126,2.628287 -17.86524,5.0625 -1.59589,-1.282493 -2.8548,-0.385003 -3.50586,1.613281 -2.43971,1.213284 -4.81626,2.587294 -7.11132,4.146484 -2.51911,0.984259 -5.12702,1.939309 -7.74219,2.919922 -2.10685,-0.202567 -4.06262,-0.474982 -5.24805,-0.753906 -1.1,-0.25 -1.99219,-0.388281 -2.67969,-0.40625 -1.14583,-0.02995 -1.71875,0.272786 -1.71875,0.939453 0,0.605041 0.84064,1.896928 2.05664,3.240234 -7.47879,3.245307 -14.46209,7.375179 -19.17382,14.160157 -1.11686,0.800195 -2.68334,2.332943 -4.75,4.599609 -3.33334,3.6 -6.13282,7.066276 -6.13282,7.599609 0,0.4 -3.19974,5.600651 -7.0664,11.333985 C 404.53424,105.20026 396.53359,123.2 386.93359,154 c -5.6,17.86667 -12.26757,48.13398 -12.26757,55.33398 0,2.13334 -0.93334,9.19961 -2,15.59961 -2.66667,16.13334 -3.60013,32.40039 -3.4668,54.40039 0.26667,19.06667 1.20013,26.53204 5.4668,39.33204 1.2,4 2.6664,10.93398 3.0664,15.33398 l 0.80078,8 -6.66601,3.73242 c -4.53334,2.4 -8.13295,6.00169 -11.59961,11.06836 -7.46667,11.33333 -14.00013,24.2668 -15.4668,31.4668 C 344.13411,391.33424 343.2,392 340,392 c -2.13333,0 -4.26602,0.53398 -4.66602,1.33398 -0.4,0.66667 -1.86783,1.33204 -3.20117,1.33204 -1.46666,0 -3.2,1.60104 -4,3.73437 -1.46666,3.46667 -2.5319,3.9987 -11.86523,5.33203 -5.6,0.93334 -10.5336,2.26836 -10.9336,3.06836 -0.66666,0.93333 -3.06679,0.79857 -7.46679,-0.13476 -3.6,-0.8 -8.93386,-1.19883 -11.86719,-0.79883 -2.93333,0.53333 -11.99948,1.33333 -20.13281,2 -19.2,1.46666 -28.80026,5.46536 -36.9336,15.33203 -3.06666,3.73333 -6.13268,7.06732 -6.66601,7.33398 -3.46667,1.46667 -11.20104,9.7336 -17.73438,18.9336 -7.86666,11.2 -14.26588,23.46653 -19.19922,36.5332 -1.6,4.4 -3.46809,8.93333 -4.13476,10 -0.66667,1.06667 -1.86602,3.46732 -2.66602,5.33398 -0.66666,1.86667 -2.40052,5.73269 -3.86718,8.66602 -16.81246,61.75236 -16.50232,73.49149 -43.06641,147.06641 -1.06667,2 -3.20026,9.60026 -4.93359,16.93359 -43.545066,113.813 -28.675796,239.74367 -65.199223,342 -2.666667,6.6667 -6.000261,22.5329 -4.933594,23.5996 0.4,0.4 -0.133073,2.933 -1.066406,5.5996 -5.511315,25.1973 -11.318122,50.1235 -13.333985,69.4668 -5.333328,50.8 -9.332942,128.5333 -7.599609,146 2.4,22.9333 8.00013,38.1333 19.466797,52 2.933333,3.6 6.40013,8.1333 7.466797,10 1.2,1.8667 6.532422,8.1339 11.732422,13.8672 36.178281,32.3732 39.832381,30.2597 64.267581,42.2676 3.33333,3.3333 22.26653,12.2659 40.5332,19.1992 15.54263,8.8357 31.41628,9.7269 45.33398,16.5332 17.38784,2.2993 35.1136,4.0732 53,5.4316 -0.8424,2.1806 -1.7813,4.3251 -2.84375,6.4141 -1.91098,2.7775 -1.26645,7.4638 -4.82812,8.4199 -1.41309,3.0446 -2.48408,6.2627 -3.76367,9.3477 -16.03495,-2.7456 -30.52473,-5.9682 -42.23242,-9.4805 -7.73334,-2.4 -16.13269,-4.8001 -18.66602,-5.4668 -6.8,-1.8666 -31.20065,-6.1325 -41.33398,-7.1992 -4.8,-0.5333 -10.66641,-2.0001 -13.06641,-3.4668 -2.4,-1.3333 -6.6668,-2.5332 -9.4668,-2.5332 -4.53333,0 -5.99987,0.9339 -12.5332,7.8672 -7.06667,7.6 -7.19948,8.1335 -8.13281,17.4668 -0.53334,5.3333 -1.60039,11.1992 -2.40039,13.1992 -0.66667,1.8667 -1.46576,8.6659 -1.73243,15.1992 -0.8,18.8 -2.93489,27.6018 -7.60156,32.5352 -2.26666,2.2666 -5.59818,4.5331 -7.46484,5.0664 -9.066679,2.2667 -21.333731,9.6002 -28.400392,16.9336 -4.133334,4.2666 -8.134115,7.7324 -8.800782,7.7324 -0.666666,0 -4.000651,3.1997 -7.333984,7.0664 -13.988872,10.463 -21.003427,14.9322 -31.464844,26.5332 -5.6,6.2667 -8.267838,12.6667 -7.201172,18 17.139655,22.854 21.443601,8.2962 35.867188,16.8008 1.6,2.8 7.199224,5.9988 15.199218,8.7988 3.866667,1.3334 9.867839,3.7345 13.201172,5.2012 3.333334,1.4667 7.866667,2.932 10,3.332 5.6,0.9334 18.265366,5.6003 29.332036,10.9336 7.73333,3.7333 12,4.8014 24,6.1348 50.28013,4.63 98.51078,22.2033 142.80078,24.5332 5.06666,0.1333 15.19987,1.732 22.5332,3.332 10.13333,2.2667 18.80052,3.0668 35.86719,3.4668 16.4,0.4 27.73333,1.4667 42,4 10.66666,1.8667 21.86549,3.1998 24.79883,3.0664 2.93333,-0.2666 8.00065,-10e-5 11.33398,0.5332 6.8,0.9334 26.40078,2.135 54.80078,3.0684 13.86667,0.5333 19.86654,0.2659 20.5332,-0.8008 0.66667,-1.0667 1.33269,-1.0667 2.66602,0 49.14884,-0.8832 62.90921,-9.7374 98,-12.4004 11.2,-0.9333 10.93268,-0.9323 54.66602,-10.2656 17.2,-3.7333 38.8,-9.0667 48,-12 9.2,-2.8 21.46731,-6.0012 27.33398,-7.2012 5.86667,-1.0667 14.53398,-2.9328 19.33398,-4.1328 18.66667,-4.2667 36.00013,-7.1999 51.4668,-8.5332 31.25256,-6.2216 49.33156,1.2868 66.66602,-16.2676 23.59684,5.4814 17.70003,-27.8172 1.19922,-43.8652 -2.66667,-2.5333 -7.86576,-9.4673 -11.73243,-15.334 -34.29704,2.7568 -29.91985,-86.3546 -51.46679,-76.1328 -0.93334,0.6667 -1.73386,0.7993 -1.86719,0.666 -0.13333,-0.2667 -1.46693,-2.3999 -2.93359,-4.5332 -6.26667,-9.2 -6.66563,-10.8003 -4.26563,-16.9336 2.13333,-5.3333 2.13242,-5.7323 -0.26758,-8.2656 -1.46666,-1.6 -3.33229,-5.468 -4.26562,-8.668 -1.6,-5.2 -1.46732,-5.9996 0.66601,-7.5996 3.73334,-2.6667 1.33386,-4.5332 -6.13281,-4.5332 -4.4,0 -7.86758,0.7999 -10.26758,2.5332 -3.33333,2.4 -22.13281,5.4676 -26.13281,4.2676 -0.66667,-0.2667 -7.33268,-0.9349 -14.66602,-1.6016 -7.33333,-0.6666 -17.46796,-1.8665 -22.66796,-2.5332 -5.06667,-0.6667 -12.93204,-1.5986 -17.33204,-1.8652 -18.53333,-1.4667 -21.60104,-3.4669 -19.73437,-12.9336 0.66667,-3.3333 1.33424,-4.0005 4.26758,-3.8672 1.86666,0.1333 7.86588,0.2661 13.19922,0.1328 19.16597,-8.7557 32.42888,-3.1713 47.86718,-3.7324 13.33334,-0.5333 16.13334,-1.0678 18,-3.2012 2.53334,-2.9333 3.8668,-3.3316 3.4668,-0.9316 -0.26667,0.9333 0.3987,1.5987 1.33203,1.332 31.72019,0.3957 48.27515,-5.7586 72.26758,-18.666 8.08725,-3.9782 34.48928,-19.0119 36,-25.5996 27.08241,-55.4197 60.05048,104.2182 58.66602,-329.334 -32.76734,-135.49827 -47.85913,-153.07978 -59.06641,-194.5332 -25.26637,-87.7251 -14.705,-66.0442 -25.4668,-163.06641 -0.8,-0.53333 -1.59857,-4.00052 -1.86523,-7.86719 -9.19278,-34.61 -7.24924,-69.78186 -19.20117,-103.86718 C 817.22553,505.13944 792.84676,425.00676 762,403.33398 c -14,-8.93333 -21.60065,-12 -35.33398,-14 -6.26667,-0.93333 -14.26576,-2.53489 -17.73243,-3.60156 -4.66666,-1.46666 -13.20065,-1.99948 -29.33398,-2.13281 -19.86667,-0.13333 -23.59896,0.26706 -28.26563,2.40039 -2.93333,1.33333 -5.86705,2.5332 -6.40039,2.5332 -0.66666,0.13334 -2.80078,-3.7332 -4.80078,-8.5332 -4.26666,-10.26667 -12.66692,-22.93411 -18.93359,-28.80078 -6.13333,-5.6 -23.99974,-17.59883 -37.06641,-24.79883 -6.4,-3.46667 0.29206,-3.59167 6.02539,-14.125 4.93334,-9.33333 12.22513,-31.82552 12.0918,-46.49219 6.83266,-26.49964 -5.35685,-66.80775 -10.32617,-98.86132 1.44483,-9.51814 0.58566,-19.53832 -0.18555,-29.01954 0.87188,-10.7908 -3.2451,-21.25988 -9.24023,-30.06054 -5.52232,-9.344948 -6.36595,-20.800919 -11.40235,-30.478519 -2.20264,-9.690533 -9.44551,-17.760074 -18.38086,-21.86914 -9.04168,-6.5152 -19.79057,-9.919134 -29.68554,-14.875 -5.74287,-4.8419 -12.52865,-10.600966 -20.38868,-10.541016 z m -4.41015,27.576172 c 6.69228,-5.94e-4 13.9348,4.466834 20.7832,3.427734 9.83826,6.817467 17.68282,16.069046 27.2461,23.195313 4.25268,2.883124 5.62887,7.223138 6.51953,11.84375 0.11911,1.257714 0.29734,2.367339 0.55468,3.21289 0.009,0.02775 0.0303,0.106417 0.0391,0.134766 0.6012,3.56576 1.2536,7.12899 2.98633,10.18359 3.4868,12.16326 8.3261,29.59541 9.10742,33.01368 0.66666,2.53333 1.99922,12.13398 3.19922,21.33398 1.86666,15.6 2.8,26.39935 6,68.66602 0.8,9.46666 2.0013,21.2 2.66796,26 3.2,20.93333 -4.36562,52.36731 -8.76562,59.83398 -0.098,0.17153 -0.16762,0.3272 -0.21875,0.4707 -0.55516,-0.86898 -1.94765,-2.27942 -5.15039,-4.30468 -5.73333,-3.73334 -29.99987,-10.53334 -42.5332,-12 -5.86667,-0.66667 -14.53204,-1.86654 -19.33204,-2.53321 -10.53333,-1.6 -47.33333,0.40065 -60,3.33399 -13.6,3.06666 -32.26653,10.79935 -40.5332,16.66601 -4.26667,3.06667 -7.73333,5.19974 -8,5.06641 -1.46667,-2.26667 -4.00091,-18.6668 -4.26758,-27.4668 -0.13333,-6 -0.6664,-11.46562 -1.0664,-12.26562 -1.6,-2.53334 -1.19961,-46.13282 0.40039,-54.13282 2.13333,-10.26666 9.73229,-36.80065 16.26562,-57.33398 2.8,-8.8 6.4,-20.53333 8,-26 1.6,-5.46667 4.4,-12.66667 6,-16 1.6,-3.33333 4.26771,-9.6 5.73438,-14 3.2,-9.2 11.99961,-24.799484 21.59961,-38.132812 0.16597,-0.237742 0.29854,-0.438518 0.45703,-0.667969 6.735,-2.548839 12.6313,-7.074095 18.08984,-11.712891 7.18582,-7.390533 19.28248,-2.510789 27.74414,-7.972656 2.07367,-1.362533 4.2419,-1.859177 6.47266,-1.859375 z M 473.50195,330.14258 c 0.67292,0.0167 1.2987,0.0583 1.83203,0.125 2.26667,0.4 10.66602,1.19857 18.66602,1.86523 11.73333,1.06667 16.26602,2.13451 22.66602,5.20117 8.13333,4 20,13.33243 20,15.73243 0,0.66666 1.86809,4.13437 4.13476,7.73437 3.06667,4.8 4.39974,8.79922 5.06641,15.19922 0.53333,4.8 1.86549,11.60065 2.79883,15.33398 6,22.13334 7.3345,28.26537 9.20117,43.33204 1.06666,9.2 2.26601,26.13489 2.66601,37.60156 1.63844,20.168 3.2578,21.0664 -16.26562,21.0664 -17.33334,0 -65.06732,3.46693 -67.33399,4.9336 -0.66666,0.4 -6.13333,1.19857 -12,1.86523 -5.86666,0.53334 -13.46744,1.73373 -16.80078,2.40039 -3.33333,0.8 -15.73346,3.59948 -27.46679,6.13282 -11.73334,2.53333 -25.46602,5.86783 -30.66602,7.20117 -5.06667,1.46666 -14.13333,3.99961 -20,5.59961 -11.6,3.2 -20.66602,4.66731 -20.66602,3.33398 0,-0.53333 0.79857,-2.80117 1.86524,-5.20117 2,-4.93333 3.06758,-14.39896 4.26758,-38.26563 0.4,-9.2 1.59935,-20 2.66601,-24 1.06667,-4 1.86719,-12.13476 1.86719,-18.13476 8.01861,-13.32033 9.77894,-54.87868 25.19922,-63.86524 2.66667,-1.33333 4.66758,-4.00143 6.26758,-8.13476 2,-5.2 3.8664,-7.19857 11.0664,-11.86524 20.4,-13.2 43.86732,-23.20013 55.33399,-23.46679 2.93333,-0.13334 7.33346,-0.66784 9.46679,-1.20117 1.7,-0.4 4.14922,-0.57344 6.16797,-0.52344 z m 181.16407,99.1914 h 13.73437 c 7.46667,0.13334 21.06563,0.66589 30.26563,1.19922 18.4,1.33334 23.86705,2.93334 32.40039,10 4.93333,4 15.33333,20.13295 14,21.59961 -0.4,0.4 -21.60039,-7.06549 -36.40039,-12.79883 -2.93334,-1.06666 -12.93204,-3.33463 -21.33204,-4.66796 -6.8,-1.2 -7.86666,-1.86667 -6,-4 1.2,-1.33334 0.79844,-1.99883 -1.60156,-2.79883 -3.2,-1.06667 -18.79935,-0.93438 -22.66601,0.26562 -2,0.53334 -2.40039,-0.13333 -2.40039,-4 z m -345.96875,11.34766 c 2.52083,-0.0651 5.30273,0.35221 7.30273,1.18555 1.06667,0.4 4.40065,1.19857 7.33398,1.86523 4.66667,0.93334 5.33243,1.60169 5.73243,5.06836 0.26666,2.13333 -0.53243,6.26641 -1.73243,9.06641 -1.6,3.86666 -2.66705,4.79948 -4.40039,4.13281 -6.53333,-2.66667 -15.59974,-4.13372 -27.0664,-4.40039 -10.26667,-0.26667 -14.1336,0.26758 -18.9336,2.26758 -8.75993,7.78681 -16.84146,12.10121 -31.33398,15.46679 l -4.40039,0.9336 4.13476,-8.13477 c 2.93334,-6 4.79883,-8.13281 6.79883,-8.13281 1.6,0 5.06771,-1.73385 7.73438,-3.86719 13.2,-10.4 25.86549,-15.33372 36.79883,-14.40039 2.93333,0.26667 6.53333,0.1349 8,-0.39844 1.1,-0.4 2.51875,-0.61328 4.03125,-0.65234 z m 349.98437,19.11914 c 2.02637,-0.0576 5.00337,0.92911 8.38477,1.13281 6,0.26667 15.46692,1.46654 20.93359,2.53321 8.66667,1.73333 36.93268,11.73255 42.66602,15.19922 1.06666,0.66666 5.06796,2.93307 8.66796,5.0664 4.53334,2.66667 7.5987,5.73503 9.33204,9.06836 1.46666,2.93333 3.46705,5.73229 4.40039,6.26563 0.8,0.53333 1.59961,2.53424 1.59961,4.26757 0,2 1.33346,4.13347 3.46679,5.4668 15.54587,23.10503 16.90651,51.40814 20,73.19922 0.4,3.6 2.53464,15.33385 4.66797,25.86719 0.86613,14.06978 6.37631,27.73906 6.93164,38.13281 0.66667,10.93333 1.3336,14.93281 2.9336,16.13281 2.28328,9.40947 15.96805,31.01928 4.13476,33.20117 -2.93333,0.53334 -6.00078,1.46667 -6.80078,2 -3.73333,2.93334 -12.93268,-2.93463 -10.66602,-6.66796 1.44747,-8.00532 -27.34583,-24.45229 -34,-21.33204 -26.16418,0.3207 -34.47064,-10.07931 -64.5332,-11.20117 -19.59387,0.61524 -23.30749,-2.14658 -39.86719,-3.86523 -8,-0.4 -14.80065,-1.0668 -15.33398,-1.4668 -0.4,-0.53333 0.26628,-2.66693 1.59961,-4.93359 1.73333,-2.93334 2.26667,-6.39961 2,-13.59961 -0.13333,-5.2 0.53346,-13.33334 1.4668,-18 1.6,-7.06667 1.60143,-10.66732 0.13476,-21.33399 -1.86667,-14 -2.00039,-18.9332 -0.40039,-20.5332 0.53333,-0.53333 4.66537,0.13294 9.33203,1.59961 6.13334,1.86667 9.20104,2.26732 11.73438,1.33398 1.86666,-0.8 5.73268,-1.33398 8.66601,-1.33398 3.73334,0 5.20117,-0.53333 5.20117,-2 0,-1.06667 1.46537,-2.26745 3.33204,-2.80078 4.4,-1.06667 8.1332,-7.86524 8.5332,-15.86524 0.13333,-4.66666 1.46758,-8.26653 4.26758,-12.5332 6.93333,-10.53333 4.93307,-26.93437 -4.9336,-39.73437 -1.73333,-2.4 -4.39909,-6.93282 -5.73242,-10.13282 -1.46667,-3.33333 -4.66784,-7.46679 -7.20117,-9.46679 -4.8,-3.73334 -7.59961,-10.39987 -7.59961,-18.53321 -0.4202,-3.97332 0.65527,-5.07522 2.68164,-5.13281 z m -350.27148,15.14063 c 3.65156,-0.0812 7.27802,0.61336 11.05664,1.85937 0.8,0.13333 1.86614,3.86615 2.13281,8.13281 1.73333,19.2 -9.59935,48.26589 -24.66602,63.19922 -4.13333,4.13334 -7.59961,8.1336 -7.59961,8.9336 0,0.66666 -0.93476,1.73281 -2.13476,2.13281 -2,0.8 -2.13203,2.53346 -1.33203,13.4668 1.06666,15.06666 1.06614,15.33424 6.13281,18.26757 4.4,2.53334 4.93268,5.73308 2.66602,17.06641 -0.66667,3.86667 -0.66576,6.53294 0.26757,7.59961 1.86667,2.26667 7.60052,0.80078 11.86719,-3.19922 2,-1.86667 4.2668,-2.80039 5.4668,-2.40039 1.2,0.53333 2.9319,-0.13294 3.86523,-1.59961 1.06667,-1.33333 3.59961,-3.19948 5.59961,-4.13281 3.06667,-1.33334 3.86706,-1.20156 4.40039,0.39844 0.93334,2.13333 1.20078,23.33359 0.80078,46.93359 -0.4,17.86667 0.80013,16.40104 -20.5332,23.73437 -24.45183,2.09694 -50.28533,12.93576 -68.66797,25.86524 -3.2,0 -6.93177,0.6668 -8.39844,1.4668 -2.26666,1.2 -2.40117,1.86809 -1.20117,4.13476 1.86667,3.6 0.39974,14.26589 -2.93359,21.19922 -4.8,10 -6.66641,20.13411 -7.06641,38.80078 -0.34342,29.94848 -17.00234,38.15075 -16.93359,70.26563 1.33333,2.66666 0.26771,9.46601 -2.26563,12.66601 -0.66666,0.93334 -2.26679,4.53425 -3.46679,8.26758 -1.33334,3.6 -3.33373,8.13385 -4.40039,9.86719 -3.6,5.6 -4.26563,10.26614 -2.26563,14.13281 2.4,4.8 2.39974,5.73242 -0.93359,17.73242 -1.6,5.73334 -4.80117,17.20156 -7.20117,25.60156 -2.4,8.4 -4.79922,18.26667 -5.19922,22 -0.53334,3.6 -1.46667,8.39935 -2,10.66602 -1.06667,3.6 -3.33425,13.60055 -10.26758,45.334 -1.33333,5.8667 -2.39844,15.4653 -2.39844,21.332 -0.13333,5.8667 -0.53502,11.0668 -1.06836,11.4668 -1.33333,0.9333 -3.4651,12.7996 -4.39844,23.5996 -0.26666,4.5334 -1.20052,9.3347 -1.86718,10.668 -2,3.8667 -3.99935,23.866 -4.66602,46.666 -0.53333,15.4667 -1.2013,22.9344 -2.66797,25.7344 -1.6,3.3333 -1.73216,7.7316 -0.79883,28.9316 0.66667,13.7334 1.86654,27.0683 2.53321,29.6016 0.66666,2.5333 2.4,9.3331 4,15.0664 3.2,12.1333 16.13294,39.7337 23.59961,50.4004 21.67522,21.5035 47.45866,49.0077 65.19922,57.7324 4.4,2.1333 11.60052,5.4663 15.86718,7.5996 18.2381,13.0259 57.33404,4.8269 55.86719,8.668 -0.53333,1.3333 0.26615,2.2655 2.13281,2.7988 3.73334,0.9333 6.80078,6.9331 6.80078,13.0664 v 4.668 H 308 c -9.2,0 -14.40039,-0.5339 -16.40039,-1.8672 -19.85965,-1.2037 -29.41257,-13.205 -49.73242,-13.334 -26.8409,-5.7866 -55.6157,-21.1458 -82,-28.1328 -2.26667,-0.5333 -4.40078,-1.7341 -4.80078,-2.8008 -0.4,-1.0666 -5.4668,-4.4001 -11.4668,-7.4668 -20.33807,-9.638 -30.33587,-16.8277 -36.66602,-36.3984 -5.6,-18.6667 -6.00039,-21.7347 -6.40039,-46.668 -0.26666,-13.8667 -0.799216,-25.9997 -1.199216,-27.0664 -0.266666,-0.9333 -0.133463,-2.6667 0.533204,-4 0.666662,-1.2 1.865492,-12.7996 2.798832,-25.5996 0.8,-12.8 2.13411,-31.9993 2.80078,-42.666 0.66666,-10.6667 2.13255,-24.1348 3.19922,-30.1348 2.85343,-39.4512 13.53962,-77.1408 16.66796,-96.53318 1.6,-9.86667 4.26667,-25.46602 6,-34.66602 1.73334,-9.2 4.79935,-26.00065 6.66602,-37.33398 1.86667,-11.33334 3.86758,-22.7987 4.26758,-25.33204 0.4,-2.53333 0.93164,-5.33333 0.93164,-6 0.13333,-0.8 0.66784,-5.2 1.20117,-10 1.06667,-8.4 3.06693,-20.80065 6.93359,-41.33398 0.93334,-5.46667 2.13269,-12.66667 2.66602,-16 0.4,-3.33333 2.53268,-13.2 4.66602,-22 2.13333,-8.8 5.73333,-25.86667 8,-38 2.4,-12.13333 5.73346,-29.2 7.46679,-38 1.86667,-8.8 4.53334,-22.66602 6,-30.66602 1.46667,-8.13333 3.60078,-17.86718 4.80078,-21.86718 1.06667,-3.86667 1.73399,-9.19961 1.33399,-11.59961 -0.4,-2.53334 -0.2668,-4.53321 0.5332,-4.53321 0.66667,0 1.19922,-1.60104 1.19922,-3.73437 0,-2 1.86615,-7.46563 4.13281,-12.26563 2.26667,-4.8 5.86719,-13.2013 7.86719,-18.66796 2.13333,-5.46667 5.6,-14.79935 8,-20.66602 2.26667,-5.86667 6.40065,-17.86602 9.33398,-26.66602 2.8,-8.8 6.66654,-20.13307 8.53321,-25.0664 1.73333,-4.93334 4.53281,-14.53399 6.13281,-21.33399 1.6,-6.8 4.26667,-14.40117 6,-17.20117 C 245.73333,503.99909 281.06745,480 290.80078,480 c 1.86667,0 4.66511,-0.93424 6.39844,-2.26758 3.88179,-1.85468 7.55937,-2.70985 11.21094,-2.79101 z m 250.65625,47.72461 c 27.86984,0.13324 40.09851,-0.36676 72.66601,6.93359 1.6,-0.13333 5.06771,-0.39987 7.73438,-0.5332 6.66666,-0.4 8.5332,2.5345 8.5332,13.20117 v 8.39844 h -3.86719 c -2.26666,0 -4.26601,-0.53256 -4.66601,-1.19922 -0.66667,-1.06667 -9.73425,-2.80078 -34.26758,-6.80078 C 593.46589,540.79935 592,540.93294 592,543.59961 c 0,1.86667 -0.53307,1.7345 -3.06641,-0.79883 -2.93333,-2.66667 -4.6677,-2.93502 -19.73437,-3.06836 -9.06667,0 -20.1332,0.26745 -24.5332,0.80078 -4.4,0.4 -16.13334,1.0668 -26,1.4668 -19.86667,0.66667 -33.33204,2.26667 -51.33204,6 -6.53333,1.33333 -17.06731,2.80065 -23.33398,3.33398 -15.6,1.06667 -30.26732,3.73347 -65.33398,11.4668 -14.17503,2.87711 -31.86966,6.71039 -41.33204,10.93164 -15.46666,6.66667 -19.60117,8.80078 -21.20117,10.80078 -3.33333,3.86667 -5.19948,2.39974 -6.13281,-4.93359 -0.53333,-3.73333 -1.60091,-8.39896 -2.26758,-10.26563 21.19071,-13.47774 37.68451,-12.47319 55.4668,-20.93359 3.33333,-1.73333 6.93333,-2.66758 8,-2.26758 1.2,0.4 4.93372,-0.13203 8.40039,-1.33203 3.46667,-1.06667 10.00039,-2.66732 14.40039,-3.33398 4.4,-0.8 15.46602,-2.66758 24.66602,-4.26758 9.2,-1.46667 22.13411,-3.86589 28.80078,-5.19922 13.06666,-2.66667 37.33255,-5.73333 47.19922,-6 3.33333,0 9.33398,-0.53307 13.33398,-1.06641 8.53333,-1.2 30.66641,-2.13424 51.06641,-2.26757 z m -3.1875,41.33984 c 1.96484,-0.008 4.28711,0.54427 4.78711,1.46094 0.66666,0.93333 6.93437,1.33307 17.73437,1.0664 l 16.79883,-0.26562 2,5.19922 c 1.6,4.26666 2.00052,12.13385 1.86719,41.86718 L 598.93359,650 h -9.20117 c -8.93333,0 -20.93177,-0.79922 -54.39844,-3.19922 -63.41889,-5.99608 -86.78601,-2.02512 -139.33398,5.86524 -6.13333,0.93333 -11.46576,2.26783 -11.73242,3.20117 -0.53334,1.73333 -5.20052,1.99896 -5.86719,0.26562 -0.13333,-0.53333 -5.46771,0.001 -11.73437,1.20117 -6.26667,1.33334 -11.7323,2.13191 -12.26563,1.86524 -1.06667,-0.66667 -2.26693,-12.66654 -2.93359,-30.5332 -0.26667,-7.33334 -1.2,-17.46654 -2,-22.53321 -0.8,-5.06666 -1.06706,-9.73372 -0.40039,-10.40039 0.53333,-0.53333 9.73424,-3.4651 20.26757,-6.39844 10.66667,-3.06666 23.59935,-6.93463 28.66602,-8.66796 5.2,-1.73334 12.66602,-3.46667 16.66602,-4 4,-0.4 11.2,-1.33191 16,-1.86524 4.8,-0.53333 11.33463,-1.73463 14.66796,-2.66797 29.70588,-9.49517 49.3746,-2.38097 73.33204,-4.66601 9.86666,-1.06667 21.60052,-2 25.86718,-2 4.4,-0.13334 8.26602,-0.53412 8.66602,-0.80078 0.45,-0.45 1.50078,-0.65547 2.67969,-0.66016 z M 531.9082,670.54102 c 63.96968,0.0731 120.1645,16.56946 174.35938,20.6582 7.56144,1.82968 32.06485,6.29347 36.26562,10.66797 2.53334,2.66666 2.8,4 2,10 -0.53333,3.73333 -1.19909,7.06536 -1.73242,7.33203 -0.4,0.4 -4.93333,-1.1987 -10,-3.33203 -54.50408,2.37314 -66.53217,-5.93199 -111.4668,-10.40039 -4.66666,-1.6 -58.79974,-2.40026 -61.0664,-0.9336 -0.66667,0.4 -11.73464,0.80026 -24.66797,0.9336 -13.06667,0.13333 -24.00039,0.66731 -24.40039,1.33398 -20.49075,2.9602 -29.33054,-0.086 -43.33203,1.59961 -31.88966,5.572 -42.0379,0.62458 -56.26758,4.66602 -35.35139,9.56 -83.16154,13.51722 -119.73242,23.86718 -0.8,2.13334 -2.13438,2.79883 -5.73438,2.79883 -2.53333,0 -5.33229,0.53503 -6.26562,1.06836 -1.06667,0.53333 -4.26784,1.1987 -7.20117,1.33203 -2.93334,0 -8.4,1.60013 -12,3.4668 -7.73334,3.86667 -14,5.60052 -14,3.86719 0,-0.66667 1.19987,-1.46719 2.5332,-1.86719 3.06667,-0.8 4.93346,-11.20013 3.4668,-19.4668 -1.2,-7.6 2.26744,-14.40026 8.80078,-16.93359 2.66666,-1.2 5.33242,-2.93281 5.73242,-4.13281 0.66667,-1.6 1.20078,-1.73373 2.80078,-0.40039 1.6,1.33333 3.19909,1.33489 7.73242,-0.39844 3.06667,-1.2 7.73425,-2.6668 10.26758,-3.4668 2.53333,-0.66667 8.53398,-2.66654 13.33398,-4.5332 8.8,-3.2 32.26667,-9.33451 36,-9.20117 4.53334,0 21.06602,-2.66706 26.66602,-4.40039 42.16516,-4.30679 90.71223,-17.47545 140,-13.06641 9.47276,-0.74395 18.76968,-1.06904 27.9082,-1.05859 z m 265.87696,29.3789 c 1.79296,0.15967 2.21484,2.36367 2.21484,7.01367 -1.98268,9.14522 3.6189,9.50417 4.66602,20.26563 9.5815,7.67204 12.61927,70.3438 14.5332,97.73437 10.90212,23.13659 2.49528,54.7482 10.26758,75.86719 0.8,2.13333 1.73385,5.33255 1.86718,7.19922 14.98675,52.16227 16.74074,109.7204 28.66602,164.2676 0.8,2.6666 1.99935,9.4664 2.66602,15.0664 5.89412,44.1551 11.18422,93.0581 -2.66602,136 -2.26667,6.6667 -4.66589,13.7333 -5.19922,16 -11.98663,34.817 -25.10009,71.839 -54.80078,80 -6.93333,2 -14.39935,4.3987 -16.66602,5.332 -23.06666,10.4 -46.80052,17.8675 -59.86718,18.8008 -6,0.4 -15.60013,1.3333 -21.4668,2 -14.13333,1.6 -15.33398,1.5997 -15.33398,-0.9336 0,-1.0667 2.2664,-6.9336 5.0664,-12.9336 2.8,-6 6.00026,-12.7992 6.9336,-15.1992 1.86666,-4.2667 6.1332,-7.0664 10.5332,-7.0664 1.46667,0 2.80117,-0.8005 3.20117,-1.8672 0.4,-0.9333 3.06719,-2.2675 5.86719,-2.8008 13.98385,-12.7312 29.2575,-21.5441 46.26562,-32.3984 0.53334,-0.5334 1.46719,-0.9336 1.86719,-0.9336 1.06667,0 4.26563,-2.8004 12.26563,-10.4004 20.0394,-32.3896 40.18051,-86.216 41.33398,-110.2676 0.8,-2.8 1.6,-14.9331 2,-27.0664 0.53333,-20.4 0.40065,-22.6661 -2.66602,-32.1328 C 806.29006,1016.3987 790.60948,949.53402 786,894.66602 c -0.4,-4 -1.2,-10.4 -2,-14 -1.6,-8.4 -4.26602,-33.6 -4.66602,-44 -0.13333,-4.4 -0.39987,-8 -0.5332,-8 -0.66667,0 -1.46758,-5.60026 -2.26758,-14.9336 -0.66666,-7.46666 -1.46679,-9.73268 -3.46679,-10.66601 C 770.93307,802.13307 770.53333,800.13333 770,790 c -0.4,-6.66667 -1.2,-15.06602 -2,-18.66602 0.68133,-11.80124 3.61476,-37.43575 12.13281,-48.93359 6.96452,-11.20431 -2.53408,-11.51712 10.53321,-19.33398 3.5,-2.15834 5.72461,-3.27067 7.11914,-3.14649 z m -212.76758,34.82422 c 20.96099,0.0378 41.31525,1.00301 60.71484,3.38867 5.73334,0.66667 6.26758,1.06758 6.26758,4.26758 0,5.2 3.33385,16.53372 5.86719,20.40039 2.8,4.53333 7.06549,21.46628 8.79883,35.59961 0.8,6.26667 2.0013,12.39909 2.66796,13.73242 0.8,1.33334 1.33204,4.26654 1.33204,6.53321 0,5.86666 2.93372,12.00052 8.40039,17.86718 4.53333,4.66667 5.33437,8.80078 1.73437,8.80078 -0.8,0 -4.00169,2.53243 -7.06836,5.73243 -3.06666,3.06666 -9.19961,8.26627 -13.59961,11.59961 -4.4,3.33333 -7.99948,6.80156 -8.13281,7.60156 0,0.93333 -0.6668,1.73242 -1.4668,1.73242 -0.93333,0 -5.73411,4.13398 -10.80078,9.33398 -5.06666,5.06667 -9.73281,9.33204 -10.13281,9.33204 -14.63699,7.43281 -34.78079,11.32463 -39.36719,21.54687 -3.24949,1.63169 -7.03119,2.527 -8.16992,6.33984 -2.79513,1.78706 -5.44103,8.34827 -14.94531,14.24219 -3.65324,2.28732 -7.44312,4.19591 -11.53907,5.5957 -2.93465,1.43967 -4.87372,4.45575 -8.39648,4.66407 -9.53475,7.61723 -32.26833,23.76212 -36.91406,34.14453 -1.33334,5.33333 -26.53399,7.06667 -29.33399,2 -2.16216,-4.50959 -21.87444,-7.7705 -22.26757,-9.86524 0,-1.06666 -24.26615,-13.33398 -26.13282,-13.33398 -0.4,0 -2.26614,-1.19935 -4.13281,-2.66602 -1.86667,-1.46666 -4.53385,-2.66796 -5.86719,-2.66796 -1.33333,0 -6.2664,-2.66667 -11.0664,-6 -45.684,-19.92499 -50.74023,-23.03809 -83.4668,-38.79883 -3.33333,-1.6 -8.79948,-4.13438 -12.13281,-5.73438 -3.33334,-1.46666 -6.5336,-2.79883 -6.9336,-2.79883 -1.2,0 -28.26731,-12.66679 -37.33398,-17.46679 -4.93333,-2.53334 -13.60052,-5.20065 -23.86719,-7.33399 -9.06666,-1.86666 -16.79961,-3.73281 -17.59961,-4.13281 -1.73333,-1.06667 0.001,-16.66797 2.66797,-22.66797 1.2,-2.8 2.93333,-12.93177 4,-22.39844 0.93333,-9.6 2.66524,-19.60091 3.86524,-22.26757 1.06666,-2.8 2.26653,-8.39935 2.5332,-12.66602 0.8,-9.46667 2.66719,-16.26615 3.86719,-14.13281 0.66666,1.2 2.26679,0.66653 5.46679,-1.4668 2.4,-1.6 8.00091,-3.73463 12.26758,-4.66797 44.15201,-9.40269 55.54155,-15.28716 88.26563,-20.79883 74.49125,-1.03244 157.09047,-12.72481 231.95117,-12.58984 z m 163.63281,85.37695 c 0.53286,-0.0416 0.61654,0.22917 0.2832,0.8125 -0.53333,0.8 -2.6e-4,3.19922 1.06641,5.19922 1.06667,2.13334 2.1332,6.66719 2.5332,9.86719 0.26667,3.33333 0.93347,9.19974 1.4668,13.06641 0.93333,6.8 0.79922,7.33372 -2.80078,10.40039 -6.93333,6 -19.86654,15.46744 -22.5332,16.80078 -3.2,1.33333 -5.9987,3.2 -13.33204,8 -2.93333,1.86666 -7.33489,3.8651 -9.60156,4.39844 -2.4,0.53333 -5.86523,2.6664 -7.86523,5.0664 -26.21539,15.60093 -56.363,28.36112 -79.20117,51.60156 -25.16254,14.62517 -40.43397,40.81412 -62,50.13282 -1.06667,0.4 -2,1.46614 -2,2.13281 0,0.8 -2.40013,3.73459 -5.4668,6.66799 -5.06667,4.9333 -5.5987,5.1982 -9.33203,3.4648 -3.06667,-1.3333 -3.86784,-2.3998 -3.20117,-4.5332 0.4,-1.8666 -0.13204,-3.1991 -1.33204,-3.7324 -1.2,-0.4 -2,-6.8e-4 -2,1.1992 0,2.6667 -1.73333,2.534 -8,-0.666 -5.2,-2.66667 -7.06666,-6.79935 -4,-8.66602 0.8,-0.53333 1.06602,-1.46809 0.66602,-2.13476 -0.53333,-0.66667 0.26628,-1.19922 1.59961,-1.19922 1.33333,0 3.99948,-1.60065 6.13281,-3.33398 8.11171,-18.09346 21.33559,-20.27518 33.6211,-29.5918 5.53261,-3.37867 12.24906,-5.43717 16.11328,-10.98242 2.81918,-3.61894 5.35822,-7.67866 9.50781,-9.92969 3.04919,-1.84752 5.72992,-4.38918 7.03125,-7.77539 4.45172,-10.16474 12.59821,-12.67357 17.72656,-17.45313 2.13334,-2 5.06849,-3.59961 6.53516,-3.59961 1.46666,0 5.86627,-2.26692 9.59961,-4.93359 10.8,-7.73333 22.5332,-15.59961 26.5332,-17.59961 C 658.40039,881.73411 660,880.4 660,880 c 0,-1.33333 14.26667,-12 16,-12 0.66667,0 1.33398,-0.53255 1.33398,-1.19922 0,-1.6 13.59857,-10.80078 15.86524,-10.80078 0.8,0 1.4668,-0.66732 1.4668,-1.33398 10.659,-3.4559 21.39398,-12.54842 29.73437,-17.19922 4.13333,-2.4 7.59961,-5.20091 7.59961,-6.26758 0,-1.06667 2.13268,-2.93281 4.66602,-4.13281 2.53333,-1.2 4.66796,-2.93243 4.66796,-3.73243 0,-0.93333 0.79909,-1.60156 1.73243,-1.60156 0.8,0 2.79948,-0.53255 4.13281,-1.19922 0.65,-0.24999 1.13146,-0.38718 1.45117,-0.41211 z m -523.60351,75.06836 c 2.79059,0.0226 6.81966,2.07082 13.35351,3.61133 6.4,1.6 15.46563,4.79922 20.26563,7.19922 22.93489,15.02779 48.98683,19.93006 65.14843,26.05273 22.11918,17.0313 48.52922,11.75909 67.11914,29.54688 1.2,1.2 4.80052,2.93437 7.86719,3.73437 3.2,0.93334 7.19922,3.1987 9.19922,5.33204 1.86667,2 5.20013,3.99987 7.4668,4.5332 23.07278,13.95176 19.56706,12.03252 37.73242,25.20118 3.46667,-0.93339 17.4668,8.3996 17.4668,11.5996 0,0.8 -1.06563,1.8676 -2.26563,2.2676 -1.33333,0.5333 -3.46745,2.1329 -4.80078,3.5996 l -2.40039,2.666 -8.26563,-2.8008 c -4.53333,-1.6 -9.46744,-3.3319 -10.80078,-3.8652 -1.73333,-0.6667 -2.26627,-0.5335 -1.59961,0.5332 -19.26202,-5.5686 -16.36033,-11.06 -32.40039,-11.334 -0.14952,0 -0.25596,0.01 -0.39648,0.012 -2.82281,-0.5069 -5.66305,-0.9542 -8.48828,-1.4355 -0.34177,-0.6855 -0.9436,-1.0139 -1.91407,-1.2422 -1.46666,-0.4 -2.66796,-1.20053 -2.66796,-1.8672 0,-0.73333 -0.3655,-1.09961 -1.04883,-1.09961 L 377.125,992.79492 c 0.28786,0.19765 0.57825,0.39881 0.87891,0.61719 -0.48968,-0.0436 -0.98583,-0.0781 -1.47071,-0.0781 -0.36546,0 -0.72043,-0.0258 -1.06836,-0.0605 -0.64643,-0.4695 -1.28582,-0.95501 -1.91015,-1.48242 l 3.57031,1.0039 c -0.18416,-0.12645 -0.384,-0.27885 -0.5625,-0.39453 -2.47149,-2.36915 -5.47276,-3.47696 -8.6543,-3.74609 -2.62232,-1.48356 -6.26793,-3.05935 -9.9082,-4.1211 -2.13333,-0.66666 -4,-2.00078 -4,-2.80078 -8.04816,1.56831 -30.24811,-15.28932 -33.06641,-14.26562 -0.4,0.53333 -2.53268,-0.80026 -4.66601,-2.9336 -17.07367,-5.34766 -34.72991,-21.20358 -50.13477,-21.86718 -1.2,0 -5.7319,-2.26693 -9.86523,-4.9336 -4.13334,-2.8 -10.66849,-6.5332 -14.53516,-8.5332 -3.73333,-2 -8.13242,-4.79896 -9.73242,-6.26563 -1.6,-1.46666 -5.60026,-3.46705 -8.93359,-4.40039 l -6,-1.59961 0.66601,-6.40039 c 2.18569,-12.05332 3.72651,-15.37281 7.31446,-15.34375 z m 464.24218,31.60547 c 0.76875,0.0875 1.14375,0.4375 0.84375,0.9375 -0.8,1.33334 2.8,33.06784 4,35.20117 0.4,0.53334 0.93399,7.46732 1.33399,15.33399 0.4,7.86666 1.20052,16.79909 1.86718,19.73242 0.66667,2.9333 1.6,25.3324 2,49.7324 l 0.9336,44.2676 -5.33399,5.1992 c -4,3.8667 -5.59948,4.8007 -6.13281,3.334 -0.4,-1.0667 -1.8668,-1.8672 -3.4668,-1.8672 -1.46666,0 -3.33424,-1.1993 -4.26757,-2.666 -0.93334,-1.4667 -2.40065,-2.666 -3.33399,-2.666 -0.8,0 -2.66666,-1.3331 -4,-3.0664 -1.33333,-1.6 -5.73242,-5.6003 -9.73242,-8.9336 -2.78069,-2.3172 -5.36263,-4.5182 -6.90039,-5.9453 -0.44299,-0.4851 -0.89522,-0.9559 -1.36719,-1.3887 -0.11079,-0.1449 -0.22356,-0.259 -0.33594,-0.3496 -1.3901,-1.369 -3.59469,-1.2118 -5.37304,-1.7422 -0.54713,-0.2112 -1.17966,-0.3829 -1.79883,-0.5879 0.0853,-0.041 0.17493,-0.072 0.25391,-0.1289 -0.82222,-0.7098 -1.8367,-1.673 -2.94141,-2.0586 -0.0224,-0.079 -0.0485,-0.1553 -0.0644,-0.2402 l -0.2168,0.1758 c -0.49191,-0.1246 -0.99635,-0.1394 -1.51172,0.057 -3.0619,-1.7394 -9.2804,-5.6783 -14.81055,-9.5254 -6.26666,-4.1333 -12.00078,-7.5996 -12.80078,-7.5996 -0.8,0 -3.33242,-1.7339 -5.73242,-3.8672 -2.4,-2 -8.00091,-5.4668 -12.26758,-7.4668 -4.4,-2.1333 -10.3987,-5.4668 -13.33203,-7.4668 -3.06667,-2 -7.60143,-4.5329 -10.13476,-5.5996 -9.06667,-4 9.26263,-21.2306 15.52929,-26.6973 23.466,-24.80149 54.59863,-50.13341 98.20508,-74.10152 0.33333,-0.0333 0.63242,-0.0347 0.88867,-0.006 z m -474.42578,10.00196 c 0.87924,-0.023 1.90339,0.2694 3.13672,0.80273 2.26667,0.93333 6.53242,3.4668 9.73242,5.4668 3.06667,2 9.86836,5.73424 15.06836,8.26757 5.33333,2.53334 11.46576,5.99909 13.73242,7.73243 2.26667,1.73333 7.06745,4.53281 10.80078,6.13281 3.6,1.6 7.46602,3.73463 8.66602,4.66797 1.06667,0.93333 4.13268,2.53346 6.66602,3.46679 19.34813,9.29762 40.24282,19.8501 59.81836,27.26762 -0.68116,1.5278 0.33751,2.2831 3.81054,1.414 2.77922,1.0017 5.52959,1.9375 8.23828,2.7852 4.13334,1.0666 8.93321,2.532 10.53321,3.332 2.98571,1.1762 8.09056,2.0266 12.04101,2.1309 15.36362,8.5412 31.23942,20.2995 41.28711,21.9062 1.35265,-0.2679 2.69291,-0.4443 4.02344,-0.5742 1.1063,0.4613 2.11215,0.8928 2.78125,1.2051 1.86667,1.0666 5.60091,1.8652 8.26758,1.8652 4.4,0 7.86718,1.8676 7.86718,4.2676 0,0.5333 -0.53398,1.0664 -1.33398,1.0664 -0.66667,0 -3.86745,2.4007 -6.80078,5.334 -8.55848,12.7447 -20.98274,16.8855 -28.93164,24.3984 -5.06667,4.6667 -16.26758,18.2677 -16.26758,19.7344 0,0.6667 -0.93424,1.1992 -2.26758,1.1992 -2.13333,0 -12.39844,10.1343 -12.39844,12.2676 0,0.6667 -16.53463,17.5991 -36.66796,37.7324 C 316.53268,1160.9327 300,1177.8671 300,1178.4004 c 0,0.5333 -3.59948,4.5336 -8.13281,8.9336 -4.4,4.4 -9.46784,10.6667 -11.20117,14 -1.6,3.3333 -4.26524,7.1999 -5.86524,8.5332 -1.6,1.4667 -2.80078,3.3337 -2.80078,4.4004 0,1.0666 -1.33307,3.1988 -3.06641,4.7988 -1.73333,1.6 -5.73411,6.2676 -8.80078,10.2676 -3.2,4 -7.6,9.4661 -10,12.1328 -2.26666,2.5333 -5.46588,7.199 -7.19922,10.2656 -0.50562,11.8695 -3.73908,6.1067 -13.0664,17.8672 l -10.53321,-11.1992 c -16.13333,-16.8 -27.19987,-34.5337 -32.5332,-52.4004 -1.6,-5.2 -4.26667,-14.1333 -6,-20 -1.73333,-5.8667 -4.00026,-15.1993 -4.93359,-20.666 -4.26202,-25.444 -7.23764,-61.3477 0.26562,-84.9336 3.05858,-9.6114 4.27368,-20.5893 7.06641,-29.0664 1.10323,-23.8518 2.31823,-19.2794 10.93359,-39.2012 -0.61774,-13.90704 4.75508,-23.35112 8.66797,-40.1328 2.13333,-8.4 2.53203,-11.73346 1.33203,-13.4668 -1.06666,-1.86666 -0.93359,-2.53255 1.06641,-3.19922 1.6,-0.4 2.93333,-3.06718 4,-7.86718 1.7,-7.70001 3.02634,-10.60106 5.66406,-10.66992 z m 169.52344,60.9707 c 1.86059,0.99508 3.77534,1.62344 5.65234,1.37695 -0.1195,0.15721 -0.2339,0.326 -0.33594,0.5293 -1.77541,-0.46711 -3.52335,-1.00528 -5.23242,-1.64258 -0.0293,-0.0889 -0.0502,-0.17237 -0.084,-0.26367 z m 116.02734,16.88672 c 2.15938,0.014 4.10196,0.8949 6.25196,2.5449 l 3.33398,2.5332 -3.06641,5.334 c -1.6,2.9333 -2.93359,6.2668 -2.93359,7.4668 0,1.2 -0.93333,2.1328 -2,2.1328 -1.06667,0 -2,0.534 -2,1.334 0,0.6667 0.66732,1.334 1.33398,1.334 0.8,0 1.33204,0.9328 1.33204,2.1328 0,1.4667 -0.66615,1.8673 -2.13282,1.334 -1.2,-0.4 -3.60065,-1.2016 -5.33398,-1.6016 -1.73333,-0.4 -3.19922,-1.3333 -3.19922,-2 0,-0.6666 -0.53398,-1.1992 -1.33398,-1.1992 -0.66667,0 -2.53282,-1.2008 -4.13282,-2.8008 -1.6,-1.6 -3.86588,-2.5328 -5.19922,-2.1328 -4.13333,1.0667 -1.46679,-4.1322 4.53321,-8.7988 6.75,-5.25 10.94791,-7.6367 14.54687,-7.6133 z m 39.44532,24.1543 c 0.91727,0.026 1.76356,0.2833 2.54101,0.791 1.46667,0.8 4.80013,2.0004 7.4668,2.4004 2.66666,0.5333 4.79883,1.4661 4.79883,2.1328 0,0.6667 0.53398,1.2012 1.33398,1.2012 8.76549,7.2274 21.57219,10.6892 30.5332,17.4668 4,2.9333 8.79935,5.7333 10.66602,6 1.86667,0.4 5.46719,1.8653 7.86719,3.332 12.87808,4.9969 11.85887,8.1311 25.0664,14.668 4.26667,2.1333 8.66628,3.8652 9.59961,3.8652 10.62438,2.5011 11.90384,11.3383 16.9336,14.8008 2.93333,2 10.80065,7.7332 17.33398,12.5332 6.66667,4.8 16.13307,11.466 21.06641,14.666 27.8384,15.1131 25.39999,20.1507 42.66601,35.8672 21.92306,9.0075 15.15203,14.6591 25.60156,24.666 5.46667,5.2 10,10.135 10,11.0684 0,1.3333 -2.80156,10.2663 -3.60156,11.5996 -0.13333,0.2667 -4.93268,-3.7341 -10.66601,-8.8008 -18.26036,-16.3726 -2.84504,0.4817 -32.13282,-28.1328 -14.66666,-14.1333 -29.20078,-26.0003 -30.80078,-24.9336 -0.66666,0.4 -1.59948,-0.4005 -2.13281,-1.8672 -0.4,-1.4667 -2.53411,-2.9335 -4.80078,-3.4668 -1.73874,-0.4346 -5.24377,-2.1155 -8.50391,-4.0918 -7.87267,-7.0341 -16.37531,-13.3497 -25.76562,-18.0664 -0.5429,-0.4445 -1.11009,-0.8923 -1.59571,-1.3086 l -3.20117,-2.7988 -1.1289,1.3945 c -1.00074,-0.4112 -2.00454,-0.815 -3.02539,-1.1875 -3.03888,-0.6396 -5.99591,-1.5033 -8.88086,-2.5429 -19.02826,-9.4593 -20.08171,-12.8367 -31.89844,-24.0645 -5.50478,-3.3738 -10.28185,-6.2615 -14.67188,-8.8926 -5.94703,-5.4238 -12.09778,-10.5377 -19.70312,-13.6367 -2.63434,-0.7618 -5.24369,-1.5525 -7.82617,-2.3848 -11.72949,-6.6125 -14.97113,-8.336 -24.59766,-16.4199 -5.28489,5.0806 -14.98358,-5.9706 -8.80078,-10.2656 4.11421,-3.6524 7.50792,-5.6685 10.25977,-5.5918 z m -85.83399,12.1875 c 5.56181,5.1703 13.8245,6.1076 21.28516,8.6289 -2.44337,3.5507 -5.86753,7.6274 -9.31055,11.041 -18.75093,23.5344 -39.491,45.6301 -50.66602,56.1348 -5.73333,9.4666 -12.13489,17.4663 -15.60156,19.5996 -3.06666,2 -4.13177,3.7331 -4.39844,7.0664 -0.26666,2.9333 -2.00052,5.9991 -5.86718,9.7324 -4.93334,4.9334 -15.86628,16.8017 -19.59961,21.0684 -0.8,0.9333 -2.93464,2.9317 -4.66797,4.3984 -1.73333,1.6 -4.66654,4.5341 -6.5332,6.8008 -1.86667,2.2667 -4.39909,4.4003 -5.73243,4.9336 -1.33333,0.5333 -2.66783,1.9992 -3.20117,3.1992 -0.53333,1.3333 -3.46653,5.0671 -6.5332,8.4004 -8.4,9.0667 -22.79909,27.3337 -23.73242,30.4004 -0.53334,1.4667 -3.8668,6.7991 -7.4668,11.7324 -3.73333,4.9333 -6.66602,9.4681 -6.66602,10.1348 0,1.7333 -11.46783,13.0664 -13.20117,13.0664 -0.66666,0 -2.53281,1.8667 -4.13281,4 -2.4,3.3333 -2.53398,4.5333 -1.33398,6 1.86666,2.2667 0.93333,6.6665 -2,10.5332 -2,2.6667 -4.66537,2.267 -15.33204,-1.5996 -1.06666,-0.4 -2.26796,-0.8008 -2.66796,-0.8008 -0.4,-0.1333 -2.53269,-1.4659 -4.66602,-3.1992 -2.26667,-1.7334 -7.46628,-5.4671 -11.59961,-8.4004 -8.66667,-6 -9.60104,-8.5339 -3.73437,-9.8672 2.26666,-0.5333 4.66679,-2.1329 5.46679,-3.5996 0.8,-1.4667 3.60143,-4.9339 6.13477,-7.8672 4.13333,-4.6667 4.79831,-6.1336 4.93164,-12.9336 9.18916,-5.0778 24.0743,-32.4184 34.40039,-37.4668 3.6,-1.7333 7.2,-4.3986 8,-5.8652 1.6,-3.2 2.93372,-4.8003 8.40039,-10.9336 6.26667,-7.0667 12.26589,-14.1337 17.19922,-20.4004 2.53333,-3.0667 8.26797,-8.7994 12.66797,-12.666 4.53333,-3.7334 8.13281,-7.7347 8.13281,-8.668 0,-0.8 0.53255,-1.5996 1.19922,-1.5996 2.26667,0 12.5332,-7.4672 16.5332,-11.8672 2,-2.2667 4.53347,-4.1328 5.4668,-4.1328 6.56521,-3.5275 15.17231,-16.5609 20.13476,-20 1.86667,0 15.33204,-14.9336 15.33204,-16.9336 0,-0.9333 0.80052,-1.7324 1.86718,-1.7324 0.93334,0 8.35677,-7.5227 11.02344,-10.7227 2.53333,-3.0666 3.77721,-4.4773 8.31055,-9.2773 4.4,-4.8 8.13281,-9.4676 8.13281,-10.2676 0,-0.9333 2.53346,-3.1992 5.4668,-5.1992 3.73333,-2.2667 6.13294,-5.2013 7.59961,-8.668 0.33108,-0.8728 0.64733,-1.5913 0.95898,-2.2031 z m 58.51758,22.7031 c 5.6544,1.702 11.27163,3.5142 16.68945,5.9121 7.08282,3.5014 14.91028,5.7028 22.40235,8.0039 11.48443,8.1346 23.28377,18.945 37.96484,27.0508 6,3.3333 15.73437,9.2012 21.73437,13.2012 19.00152,12.7188 10.01671,6.5606 26.13282,16.1328 3.2,0 3.86718,0.5331 3.86718,3.0664 0,3.2986 6.91891,9.2051 10.92774,10.4316 2.58064,3.78 5.12595,7.5907 8.25195,10.7247 0.62598,1.5853 0.50232,2.5635 -0.24609,3.6445 -2.13334,2.8 -7.60078,12.2668 -14.80078,25.4668 -4.53334,8.2667 -9.86667,14.7992 -22,27.1992 -9.2,9.3333 -18.93412,17.9995 -22.80078,20.1328 -3.6,2 -8.13334,4.6667 -10,6 -72.12331,32.5027 -174.13178,41.0528 -230,44.5332 -16,0.8 -27.19961,2.0013 -43.59961,4.668 -3.6,0.6667 -6.40039,0.5333 -6.40039,0 0,-1.2 4.53398,-7.868 11.33398,-16.668 11.2,-14.5333 15.99922,-20.0001 19.19922,-21.4668 6.93333,-3.2 24.80143,-19.5995 26.13476,-24.1328 0.66667,-2.4 1.86602,-4.2656 2.66602,-4.2656 2.8,0 8.40078,-7.4677 14.80078,-19.7344 4.4,-8.4 7.06602,-12.2656 8.66602,-12.2656 1.33333,0 3.3332,-1.3331 4.5332,-3.0664 7.06667,-9.8667 8.93398,-12.6685 11.33398,-16.5352 1.6,-2.2666 4.13191,-4.5316 5.86524,-4.9316 1.73333,-0.4 5.0668,-2.9349 7.4668,-5.6016 3.46666,-4 4.13346,-5.5997 3.46679,-9.0664 -0.66666,-3.4667 -0.13346,-4.7992 2.53321,-7.1992 1.86666,-1.6 3.33398,-3.4676 3.33398,-4.2676 0,-0.6667 1.59909,-1.332 3.73242,-1.332 3.86667,0 10.9336,-7.2012 10.9336,-11.2012 0,-3.4667 4.40065,-9.4668 11.33398,-15.4668 3.73333,-3.2 7.46706,-6.7995 8.40039,-8.1328 0.8,-1.2 3.33346,-2.6659 5.4668,-3.1992 7.46666,-1.6 34.79883,-25.4676 34.79883,-30.2676 2.57067,-3.837 4.31233,-6.1619 5.87695,-7.3672 z m 88.46875,239.336 c 1.76009,0.1407 1.79674,4.6907 0.45508,15.2324 -1.06667,8.8 -2.26628,14.2659 -3.59961,15.1992 -1.6,1.3333 -1.60052,2.1323 0.13281,6.2656 3.06667,7.4667 2.66732,8.9347 -2.66602,8.668 -2.93333,-0.1333 -5.4664,-1.1997 -7.0664,-3.0664 -2.26667,-2.6667 -4.00039,-3.0679 -14.40039,-3.2012 -6.53334,-0.1333 -12.26797,-0.6659 -12.66797,-1.1992 -0.53333,-0.5333 -1.3319,-8.2678 -1.86524,-17.2012 l -0.93359,-16.2656 3.33203,-0.8008 c 1.73334,-0.5333 6.00013,-0.6656 9.4668,-0.2656 3.33333,0.2667 6.13476,-0.1341 6.13476,-0.8008 0,-0.6667 0.79857,-0.5324 1.86524,0.2676 1.33333,1.0667 2.13411,1.1995 2.80078,0.1328 1.06667,-1.7333 6.93333,-1.7333 8,0 1.33333,2.1333 5.33281,1.6008 8.13281,-1.1992 1.2375,-1.2 2.19018,-1.8207 2.87891,-1.7656 z m -46.79688,0.9199 c 0.0886,0 -4.64856,2.0119 -4.61523,2.0449 0.13333,0.1333 2.92786,9.4938 3.86119,20.0271 1.06667,10.5333 -4.54519,19.4668 -4.54519,19.4668 -20.14645,3.8937 -64.11483,1.0396 -66.11483,-0.027 -0.4,-0.2667 -6.13411,-7e-4 -12.80078,0.666 -10.4,1.0667 -50.79935,4.0014 -56.66602,4.1348 -1.06666,0 -6.40052,0.532 -11.86718,1.332 l -9.86719,1.2012 -3.86719,-4.1348 c -3.33333,-3.7333 -4.53281,-4.1334 -8.13281,-3.4668 -21.78665,5.0581 -8.42339,-4.4723 -16.40039,-16.9316 -1.86667,-2.8 -3.06602,-6.0017 -2.66602,-7.0684 0.8,-2 2.1336,-2.1332 22.9336,-2.5332 31.67392,0.23 63.93269,-6.125 94.26562,-5.8652 15.73334,0 25.06706,-0.6666 34.40039,-2.5332 7.46667,-1.4667 17.20026,-2.4015 22.9336,-2.1348 7.6,0.2667 11.06653,-0.2661 14.5332,-2.1328 2.1,-1.1667 3.99544,-2.0267 4.61523,-2.0449 z m 39.91797,121.6445 c -0.93333,-0.4 -4.79883,2.133 -8.79883,5.5996 -36.39962,34.7876 -175.81102,17.1586 -237.33398,12.2676 -3.13341,-0.2984 -6.45493,-0.6005 -9.68555,-0.8945 -0.76988,-1.4975 -1.54592,-2.785 -2.17578,-3.5547 -1.43153,-1.2477 -1.96246,-5.5342 -4.20703,-7.2891 -3.1088,-3.9171 -8.1213,-6.0141 -10.19531,-10.7871 -1.18412,-2.9151 -2.28255,-5.86 -3.8086,-8.541 54.00238,2.2911 108.2524,1.4725 158.07227,0.1328 36.36101,-5.1889 79.10218,1.8746 108.40039,-0.8008 16.86713,-9.5168 13.74363,14.5973 9.73242,13.8672 z m -438.23828,16.8457 c 0.40706,-0.025 0.84219,0.046 1.30469,0.2207 0.93333,0.4 4.53333,1.3343 8,2.2676 3.33333,0.8 6.93333,2.1336 8,2.9336 4,3.0667 47.86745,15.0661 66.80078,18.1328 17.73333,2.9333 28.93333,5.1999 32,6.5332 1.86667,0.6667 10,2.3996 18,3.5996 8.13333,1.2 17.73398,2.6673 21.33398,3.334 24.99179,-0.026 43.70324,5.6191 59.4668,6.1328 84.81779,-2.3492 99.9178,3.5151 135.59961,3.334 12,-0.1333 17.59961,0.2673 17.59961,1.334 0,0.8 -2.80091,6.665 -6.26758,12.9316 -3.46666,6.2667 -7.06614,13.0684 -8.13281,15.0684 -1.06667,2.1333 -2.93372,3.7324 -4.40039,3.7324 -9.00795,16.1843 -33.15301,-0.8633 -65.86524,1.8672 -20.95366,2.2787 -9.3392,-2.1707 -46.93359,1.332 -12.4,0.9334 -51.46654,-1.0666 -74.5332,-4 -92.25671,-21.2034 -94.36532,-7.6266 -161.59961,-22.3984 l -3.60156,-1.8672 1.20117,-14.4004 c 0.8,-10.2667 0.79961,-16.1328 -0.40039,-20.1328 -2.77917,-10.5125 -1.50714,-19.7121 2.42773,-19.9551 z m 415.94531,38.6328 c 15.2365,-0.1338 33.53412,1.4892 48.97852,2.1836 0.31372,0.044 0.65942,0.072 1.04883,0.072 0.1464,0 0.2918,-0.012 0.4375,-0.02 9.50646,0.3926 17.87212,0.4038 23.5625,-0.6485 4.26666,-0.9333 5.46692,-0.666 6.93359,1.334 1.06667,1.4667 3.73216,2.5327 6.79883,2.666 4.4,0.2667 5.06719,0.8014 5.86719,4.1348 0.4,2.1333 1.46562,5.1988 2.26562,6.7988 3.06667,5.6 2.13334,6.8011 -6,7.7344 -4.26666,0.4 -12.26575,1.3328 -17.73242,2.1328 -30.15521,4.788 -63.79027,7.5048 -86.66602,9.7324 -4,0.4 -13.4664,1.3348 -21.0664,2.1348 -7.6,0.8 -14.93373,1.066 -16.40039,0.666 -3.33334,-1.0667 -2.53386,-5.8674 2.13281,-12.8008 1.86667,-2.8 3.60052,-7.0659 3.86719,-9.1992 0.66666,-6.8 3.33346,-8.266 15.46679,-8.666 3.2507,-6.2509 15.36158,-8.1228 30.50586,-8.2559 z m -454.12109,43.3594 c 2.25625,-0.062 4.08203,0.3621 5.08203,1.1621 1.2,0.9333 2.39883,1.4664 2.79883,1.0664 0.4,-0.4 6.66719,0.4005 13.86719,1.8672 7.2,1.4667 19.19987,3.3328 26.5332,4.1328 7.33333,0.8 17.86732,2.6681 23.33398,4.1348 5.46667,1.3333 15.06537,3.3318 21.33204,4.3984 6.26666,1.0667 18.53398,3.4668 27.33398,5.4668 25.16245,-1.8737 43.66675,8.2629 68.13281,10.5332 8.13334,0.4 18.13334,1.4681 22,2.1348 27.6,4.9333 63.99987,6.6664 102.53321,5.0664 12.13333,-0.5333 34.93463,-1.0678 50.66796,-1.2012 34.85402,7.6867 29.12719,0.4403 54.26563,-0.666 9.33333,-0.4 20.66641,-1.3333 25.06641,-2 4.4,-0.6667 19.06796,-2.1325 32.66796,-3.1992 13.6,-1.2 28.26602,-2.5345 32.66602,-3.2012 4.4,-0.8 13.46667,-1.6 20,-2 30.66667,-1.8667 38.93333,-2.5324 42,-3.7324 1.86667,-0.6667 6.93398,-1.4677 11.33398,-1.7344 4.4,-0.1333 8.93334,-0.5321 10,-0.7988 1.6,-0.4 1.99896,1.6001 2.26563,11.4668 0.13333,6.5333 0.4013,15.866 0.66797,20.666 l 0.5332,8.666 -8,7.8672 c -76.12668,20.4865 -153.93612,19.9941 -227.86719,34.5332 -43.69729,1.415 -93.7343,-11.8633 -119.86718,-13.1992 -8.13334,-0.2667 -19.3336,-1.3337 -24.9336,-2.4004 -5.6,-1.0667 -15.20013,-2.6668 -21.46679,-3.4668 -31.77636,-9.3859 -40.10446,-0.5619 -78.13282,-13.4668 -0.8,-0.6667 -7.73398,-1.6 -15.33398,-2 -7.6,-0.5333 -14.53346,-1.4661 -15.4668,-2.1328 -29.80953,-3.597 -56.63742,-16.9736 -82.39844,-26.4004 -6.53333,-2.2667 -12.13372,-4 -12.40039,-4 -1.06666,0.5333 -15.867314,-3.3337 -17.333981,-4.4004 -1.066666,-0.9333 -2.80026,-0.7996 -4.933593,0.4004 -3.866667,2.1333 -8.39948,0.8009 -6.132813,-1.7324 1.066667,-1.3334 0.933854,-2.2673 -0.132812,-3.334 -1.2,-1.2 -0.933985,-2.1333 0.666015,-4 1.2,-1.3333 2.267578,-2.9329 2.267578,-3.5996 0,-1.8667 11.865235,-12.668 13.865235,-12.668 0.933333,0 2.533984,-0.7986 3.333984,-1.8652 2.133337,-2.5334 8.399867,-3.6011 10.533207,-1.7344 1.46666,1.2 1.73398,0.9341 1.33398,-1.1992 -0.26667,-2 0.53359,-2.6679 4.93359,-3.2012 0.83334,-0.1333 1.63269,-0.2077 2.38477,-0.2285 z"
       transform="matrix(7.5,0,0,-7.5,0,12800)"
       id="path4487"
       inkscape:connector-curvature="0"
       sodipodi:nodetypes="ccccccccscccsccsccccccccscsccccccccccscccccccccccccccccccccccscccccccscccccsccccccccccccccccccccccccccccscccccccccccccccccccccccccccccccccccccscccccccccccccccccccccssscccccsccccscccccscccsccsccccccccccccccccccscscsccccccccccscccscccccccsccccccccccccccccsccssccccccccccccscccccccccccccccccccccccscccccccccccccccccscsccccccccccscccssccccccccccsscccccscscccccscsccscccccccccccccccccccccccccccscccccccsscccscccccsccccccccccccscccscccccccccccsccccccccccccccsscscccscccccccscccccccscscccscscccsccccccccccscscccsccccccccsccsccccccccccccsccccscccsccccccsccssssccscssccsccccccccsccccccccccscccsccccccccccccccccscccscccccscscccccccccccccscccccccccccccccccccccccsssccssscscccscccccccsccccccccccccccccccssssscssssccccccscccccccccccscccccccccccccccccccccccccccccccccccssccccccccscccccccsscccssccscccccccccscccccccccscccscsccscccssscccccccccccccccccscccccccccccccccccccccccccccccccccccccccccccccscccccccccccccscccccccccscccccccsssccccccccsccccccccccccscccccccccccssccccc" />
  </g>
</svg>
